<?xml version="1.0" standalone="no"?>
<!DOCTYPE svg PUBLIC "-//W3C//DTD SVG 1.1//EN" "http://www.w3.org/Graphics/SVG/1.1/DTD/svg11.dtd" >
<svg>
<metadata>
Created by FontForge 20090914 at Thu Feb 23 21:52:12 2012
 By root
</metadata>
<defs>
<font id="LCDDisplayGrid" horiz-adv-x="1380" >
  <font-face 
    font-family="LCD Display Grid"
    font-weight="400"
    font-stretch="normal"
    units-per-em="2048"
    panose-1="2 11 6 3 5 3 2 2 2 4"
    ascent="1638"
    descent="-410"
    x-height="1209"
    cap-height="1721"
    bbox="0 0 1209 1721"
    underline-thickness="0"
    underline-position="0"
    unicode-range="U+0020-U+201D"
  />
<missing-glyph horiz-adv-x="2048" 
d="M256 0v185h185v-185h-185zM256 256v185h185v-185h-185zM512 256v185h185v-185h-185zM512 0v185h185v-185h-185z" />
    <glyph glyph-name=".notdef" unicode="&#x178;" horiz-adv-x="2048" 
d="M256 0v185h185v-185h-185zM256 256v185h185v-185h-185zM512 256v185h185v-185h-185zM512 0v185h185v-185h-185z" />
    <glyph glyph-name=".notdef" unicode="&#x2122;" horiz-adv-x="2048" 
d="M256 0v185h185v-185h-185zM256 256v185h185v-185h-185zM512 256v185h185v-185h-185zM512 0v185h185v-185h-185z" />
    <glyph glyph-name=".notdef" unicode="&#x2030;" horiz-adv-x="2048" 
d="M256 0v185h185v-185h-185zM256 256v185h185v-185h-185zM512 256v185h185v-185h-185zM512 0v185h185v-185h-185z" />
    <glyph glyph-name=".notdef" unicode="&#x2026;" horiz-adv-x="2048" 
d="M256 0v185h185v-185h-185zM256 256v185h185v-185h-185zM512 256v185h185v-185h-185zM512 0v185h185v-185h-185z" />
    <glyph glyph-name=".notdef" unicode="&#x2dc;" horiz-adv-x="2048" 
d="M256 0v185h185v-185h-185zM256 256v185h185v-185h-185zM512 256v185h185v-185h-185zM512 0v185h185v-185h-185z" />
    <glyph glyph-name=".notdef" unicode="&#x2c6;" horiz-adv-x="2048" 
d="M256 0v185h185v-185h-185zM256 256v185h185v-185h-185zM512 256v185h185v-185h-185zM512 0v185h185v-185h-185z" />
    <glyph glyph-name=".notdef" unicode="&#x192;" horiz-adv-x="2048" 
d="M256 0v185h185v-185h-185zM256 256v185h185v-185h-185zM512 256v185h185v-185h-185zM512 0v185h185v-185h-185z" />
    <glyph glyph-name="glyph1" horiz-adv-x="0" 
 />
    <glyph glyph-name="glyph2" horiz-adv-x="2048" 
 />
    <glyph glyph-name="space" unicode=" " horiz-adv-x="2048" 
 />
    <glyph glyph-name="period" unicode="." 
d="M256 0v185h185v-185h-185zM256 256v185h185v-185h-185zM512 256v185h185v-185h-185zM512 0v185h185v-185h-185z" />
    <glyph glyph-name="A" unicode="A" 
d="M0 0v185h185v-185h-185zM0 256v185h185v-185h-185zM0 512v185h185v-185h-185zM0 768v185h185v-185h-185zM0 1024v185h185v-185h-185zM0 1280v185h185v-185h-185zM256 1536v185h185v-185h-185zM512 1536v185h185v-185h-185zM768 1536v185h185v-185h-185zM1024 1280v185
h185v-185h-185zM1024 1024v185h185v-185h-185zM1024 768v185h185v-185h-185zM1024 512v185h185v-185h-185zM1024 256v185h185v-185h-185zM1024 0v185h185v-185h-185zM768 512v185h185v-185h-185zM512 512v185h185v-185h-185zM256 512v185h185v-185h-185z" />
    <glyph glyph-name="B" unicode="B" 
d="M256 0v185h185v-185h-185zM512 0v185h185v-185h-185zM768 0v185h185v-185h-185zM768 768v185h185v-185h-185zM512 768v185h185v-185h-185zM256 768v185h185v-185h-185zM1024 1024v185h185v-185h-185zM1024 1280v185h185v-185h-185zM768 1536v185h185v-185h-185zM512 1536
v185h185v-185h-185zM256 1536v185h185v-185h-185zM0 1536v185h185v-185h-185zM0 1280v185h185v-185h-185zM0 1024v185h185v-185h-185zM0 768v185h185v-185h-185zM0 512v185h185v-185h-185zM0 256v185h185v-185h-185zM0 0v185h185v-185h-185zM1024 512v185h185v-185h-185z
M1024 256v185h185v-185h-185z" />
    <glyph glyph-name="C" unicode="C" 
d="M1024 256v185h185v-185h-185zM0 256v185h185v-185h-185zM0 512v185h185v-185h-185zM0 768v185h185v-185h-185zM0 1024v185h185v-185h-185zM0 1280v185h185v-185h-185zM256 1536v185h185v-185h-185zM512 1536v185h185v-185h-185zM768 1536v185h185v-185h-185zM1024 1280
v185h185v-185h-185zM768 0v185h185v-185h-185zM512 0v185h185v-185h-185zM256 0v185h185v-185h-185z" />
    <glyph glyph-name="D" unicode="D" 
d="M0 0v185h185v-185h-185zM256 0v185h185v-185h-185zM512 0v185h185v-185h-185zM768 1536v185h185v-185h-185zM512 1536v185h185v-185h-185zM256 1536v185h185v-185h-185zM0 1536v185h185v-185h-185zM0 1280v185h185v-185h-185zM0 1024v185h185v-185h-185zM0 768v185h185
v-185h-185zM0 512v185h185v-185h-185zM0 256v185h185v-185h-185zM768 0v185h185v-185h-185zM1024 256v185h185v-185h-185zM1024 512v185h185v-185h-185zM1024 1280v185h185v-185h-185zM1024 1024v185h185v-185h-185zM1024 768v185h185v-185h-185z" />
    <glyph glyph-name="E" unicode="E" 
d="M256 768v185h185v-185h-185zM512 768v185h185v-185h-185zM1024 1536v185h185v-185h-185zM768 768v185h185v-185h-185zM1024 0v185h185v-185h-185zM768 0v185h185v-185h-185zM0 256v185h185v-185h-185zM0 512v185h185v-185h-185zM0 768v185h185v-185h-185zM0 1024v185h185
v-185h-185zM0 1280v185h185v-185h-185zM0 1536v185h185v-185h-185zM256 1536v185h185v-185h-185zM512 1536v185h185v-185h-185zM768 1536v185h185v-185h-185zM512 0v185h185v-185h-185zM256 0v185h185v-185h-185zM0 0v185h185v-185h-185z" />
    <glyph glyph-name="F" unicode="F" 
d="M0 0v185h185v-185h-185zM768 1536v185h185v-185h-185zM512 1536v185h185v-185h-185zM256 1536v185h185v-185h-185zM0 1280v185h185v-185h-185zM0 1024v185h185v-185h-185zM0 768v185h185v-185h-185zM0 512v185h185v-185h-185zM0 256v185h185v-185h-185zM768 768v185h185
v-185h-185zM1024 1536v185h185v-185h-185zM512 768v185h185v-185h-185zM256 768v185h185v-185h-185zM0 1536v185h185v-185h-185z" />
    <glyph glyph-name="G" unicode="G" 
d="M768 0v185h185v-185h-185zM1024 0v185h185v-185h-185zM1024 1280v185h185v-185h-185zM1024 256v185h185v-185h-185zM0 256v185h185v-185h-185zM0 512v185h185v-185h-185zM0 768v185h185v-185h-185zM0 1024v185h185v-185h-185zM0 1280v185h185v-185h-185zM512 0v185h185
v-185h-185zM256 1536v185h185v-185h-185zM512 1536v185h185v-185h-185zM768 1536v185h185v-185h-185zM256 0v185h185v-185h-185zM512 768v185h185v-185h-185zM768 768v185h185v-185h-185zM1024 768v185h185v-185h-185zM1024 512v185h185v-185h-185z" />
    <glyph glyph-name="H" unicode="H" 
d="M1024 512v185h185v-185h-185zM1024 768v185h185v-185h-185zM768 768v185h185v-185h-185zM512 768v185h185v-185h-185zM0 0v185h185v-185h-185zM1024 1280v185h185v-185h-185zM1024 1536v185h185v-185h-185zM0 1536v185h185v-185h-185zM256 768v185h185v-185h-185zM0 1280
v185h185v-185h-185zM0 1024v185h185v-185h-185zM0 768v185h185v-185h-185zM0 512v185h185v-185h-185zM0 256v185h185v-185h-185zM1024 256v185h185v-185h-185zM1024 1024v185h185v-185h-185zM1024 0v185h185v-185h-185z" />
    <glyph glyph-name="I" unicode="I" 
d="M512 0v185h185v-185h-185zM256 256v185h185v-185h-185zM256 512v185h185v-185h-185zM256 1536v185h185v-185h-185zM256 1024v185h185v-185h-185zM256 1280v185h185v-185h-185zM256 768v185h185v-185h-185zM0 1536v185h185v-185h-185zM0 0v185h185v-185h-185zM256 0v185
h185v-185h-185zM512 1536v185h185v-185h-185z" />
    <glyph glyph-name="J" unicode="J" 
d="M1024 1536v185h185v-185h-185zM256 0v185h185v-185h-185zM0 256v185h185v-185h-185zM512 1536v185h185v-185h-185zM768 768v185h185v-185h-185zM768 1280v185h185v-185h-185zM768 1024v185h185v-185h-185zM768 1536v185h185v-185h-185zM768 512v185h185v-185h-185z
M768 256v185h185v-185h-185zM512 0v185h185v-185h-185z" />
    <glyph glyph-name="K" unicode="K" 
d="M0 512v185h185v-185h-185zM512 512v185h185v-185h-185zM1024 1536v185h185v-185h-185zM768 1280v185h185v-185h-185zM0 1280v185h185v-185h-185zM0 768v185h185v-185h-185zM512 1024v185h185v-185h-185zM0 256v185h185v-185h-185zM0 0v185h185v-185h-185zM0 1024v185h185
v-185h-185zM256 768v185h185v-185h-185zM768 256v185h185v-185h-185zM1024 0v185h185v-185h-185zM0 1536v185h185v-185h-185z" />
    <glyph glyph-name="L" unicode="L" 
d="M0 1536v185h185v-185h-185zM1024 0v185h185v-185h-185zM768 0v185h185v-185h-185zM256 0v185h185v-185h-185zM0 1024v185h185v-185h-185zM0 0v185h185v-185h-185zM0 256v185h185v-185h-185zM0 768v185h185v-185h-185zM0 1280v185h185v-185h-185zM512 0v185h185v-185h-185
zM0 512v185h185v-185h-185z" />
    <glyph glyph-name="M" unicode="M" 
d="M0 512v185h185v-185h-185zM1024 1024v185h185v-185h-185zM0 1280v185h185v-185h-185zM0 768v185h185v-185h-185zM0 256v185h185v-185h-185zM0 0v185h185v-185h-185zM0 1024v185h185v-185h-185zM1024 256v185h185v-185h-185zM1024 512v185h185v-185h-185zM1024 0v185h185
v-185h-185zM0 1536v185h185v-185h-185zM1024 768v185h185v-185h-185zM1024 1280v185h185v-185h-185zM1024 1536v185h185v-185h-185zM256 1280v185h185v-185h-185zM768 1280v185h185v-185h-185zM512 1024v185h185v-185h-185zM512 768v185h185v-185h-185z" />
    <glyph glyph-name="N" unicode="N" 
d="M512 768v185h185v-185h-185zM768 512v185h185v-185h-185zM256 1024v185h185v-185h-185zM1024 1536v185h185v-185h-185zM1024 1280v185h185v-185h-185zM1024 768v185h185v-185h-185zM0 1536v185h185v-185h-185zM1024 0v185h185v-185h-185zM1024 512v185h185v-185h-185z
M1024 256v185h185v-185h-185zM0 1024v185h185v-185h-185zM0 0v185h185v-185h-185zM0 256v185h185v-185h-185zM0 768v185h185v-185h-185zM0 1280v185h185v-185h-185zM1024 1024v185h185v-185h-185zM0 512v185h185v-185h-185z" />
    <glyph glyph-name="O" unicode="O" 
d="M0 512v185h185v-185h-185zM1024 1024v185h185v-185h-185zM0 1280v185h185v-185h-185zM0 768v185h185v-185h-185zM0 256v185h185v-185h-185zM512 0v185h185v-185h-185zM0 1024v185h185v-185h-185zM1024 256v185h185v-185h-185zM1024 512v185h185v-185h-185zM256 1536v185
h185v-185h-185zM1024 768v185h185v-185h-185zM1024 1280v185h185v-185h-185zM256 0v185h185v-185h-185zM512 1536v185h185v-185h-185zM768 0v185h185v-185h-185zM768 1536v185h185v-185h-185z" />
    <glyph glyph-name="P" unicode="P" 
d="M512 1536v185h185v-185h-185zM512 768v185h185v-185h-185zM256 1536v185h185v-185h-185zM0 0v185h185v-185h-185zM768 1536v185h185v-185h-185zM1024 1024v185h185v-185h-185zM0 1536v185h185v-185h-185zM768 768v185h185v-185h-185zM0 1024v185h185v-185h-185zM256 768
v185h185v-185h-185zM0 256v185h185v-185h-185zM0 768v185h185v-185h-185zM0 1280v185h185v-185h-185zM1024 1280v185h185v-185h-185zM0 512v185h185v-185h-185z" />
    <glyph glyph-name="Q" unicode="Q" 
d="M0 512v185h185v-185h-185zM1024 1280v185h185v-185h-185zM0 1280v185h185v-185h-185zM0 768v185h185v-185h-185zM0 256v185h185v-185h-185zM768 256v185h185v-185h-185zM0 1024v185h185v-185h-185zM1024 0v185h185v-185h-185zM256 0v185h185v-185h-185zM1024 1024v185
h185v-185h-185zM768 1536v185h185v-185h-185zM512 0v185h185v-185h-185zM256 1536v185h185v-185h-185zM512 512v185h185v-185h-185zM512 1536v185h185v-185h-185zM1024 768v185h185v-185h-185zM1024 512v185h185v-185h-185z" />
    <glyph glyph-name="R" unicode="R" 
d="M0 512v185h185v-185h-185zM1024 1280v185h185v-185h-185zM0 1280v185h185v-185h-185zM0 768v185h185v-185h-185zM0 256v185h185v-185h-185zM256 768v185h185v-185h-185zM0 1024v185h185v-185h-185zM768 768v185h185v-185h-185zM0 1536v185h185v-185h-185zM1024 1024v185
h185v-185h-185zM768 1536v185h185v-185h-185zM0 0v185h185v-185h-185zM256 1536v185h185v-185h-185zM512 768v185h185v-185h-185zM512 1536v185h185v-185h-185zM1024 0v185h185v-185h-185zM768 256v185h185v-185h-185zM512 512v185h185v-185h-185z" />
    <glyph glyph-name="S" unicode="S" 
d="M1024 512v185h185v-185h-185zM1024 256v185h185v-185h-185zM768 0v185h185v-185h-185zM512 1536v185h185v-185h-185zM512 768v185h185v-185h-185zM256 1536v185h185v-185h-185zM0 0v185h185v-185h-185zM768 1536v185h185v-185h-185zM1024 1536v185h185v-185h-185z
M768 768v185h185v-185h-185zM0 1024v185h185v-185h-185zM256 768v185h185v-185h-185zM512 0v185h185v-185h-185zM0 1280v185h185v-185h-185zM256 0v185h185v-185h-185z" />
    <glyph glyph-name="T" unicode="T" 
d="M0 1536v185h185v-185h-185zM512 0v185h185v-185h-185zM512 1024v185h185v-185h-185zM512 1280v185h185v-185h-185zM512 768v185h185v-185h-185zM1024 1536v185h185v-185h-185zM768 1536v185h185v-185h-185zM256 1536v185h185v-185h-185zM512 512v185h185v-185h-185z
M512 1536v185h185v-185h-185zM512 256v185h185v-185h-185z" />
    <glyph glyph-name="U" unicode="U" 
d="M256 0v185h185v-185h-185zM768 0v185h185v-185h-185zM0 256v185h185v-185h-185zM0 1280v185h185v-185h-185zM1024 256v185h185v-185h-185zM1024 512v185h185v-185h-185zM0 512v185h185v-185h-185zM0 1024v185h185v-185h-185zM0 768v185h185v-185h-185zM512 0v185h185
v-185h-185zM0 1536v185h185v-185h-185zM1024 768v185h185v-185h-185zM1024 1024v185h185v-185h-185zM1024 1280v185h185v-185h-185zM1024 1536v185h185v-185h-185z" />
    <glyph glyph-name="V" unicode="V" 
d="M1024 1536v185h185v-185h-185zM1024 1280v185h185v-185h-185zM1024 1024v185h185v-185h-185zM1024 768v185h185v-185h-185zM0 1536v185h185v-185h-185zM512 0v185h185v-185h-185zM0 768v185h185v-185h-185zM0 1024v185h185v-185h-185zM0 512v185h185v-185h-185zM1024 512
v185h185v-185h-185zM0 1280v185h185v-185h-185zM768 256v185h185v-185h-185zM256 256v185h185v-185h-185z" />
    <glyph glyph-name="W" unicode="W" 
d="M512 512v185h185v-185h-185zM512 768v185h185v-185h-185zM0 1280v185h185v-185h-185zM1024 512v185h185v-185h-185zM0 512v185h185v-185h-185zM0 1024v185h185v-185h-185zM0 768v185h185v-185h-185zM512 256v185h185v-185h-185zM0 1536v185h185v-185h-185zM1024 768v185
h185v-185h-185zM1024 1024v185h185v-185h-185zM1024 1280v185h185v-185h-185zM1024 1536v185h185v-185h-185zM256 0v185h185v-185h-185zM768 0v185h185v-185h-185zM0 256v185h185v-185h-185zM1024 256v185h185v-185h-185z" />
    <glyph glyph-name="X" unicode="X" 
d="M1024 256v185h185v-185h-185zM0 0v185h185v-185h-185zM1024 0v185h185v-185h-185zM1024 1536v185h185v-185h-185zM1024 1280v185h185v-185h-185zM768 1024v185h185v-185h-185zM0 1536v185h185v-185h-185zM768 512v185h185v-185h-185zM256 1024v185h185v-185h-185zM0 256
v185h185v-185h-185zM0 1280v185h185v-185h-185zM512 768v185h185v-185h-185zM256 512v185h185v-185h-185z" />
    <glyph glyph-name="Y" unicode="Y" 
d="M1024 1024v185h185v-185h-185zM512 512v185h185v-185h-185zM768 768v185h185v-185h-185zM1024 1536v185h185v-185h-185zM1024 1280v185h185v-185h-185zM256 768v185h185v-185h-185zM0 1536v185h185v-185h-185zM0 1024v185h185v-185h-185zM512 256v185h185v-185h-185z
M0 1280v185h185v-185h-185zM512 0v185h185v-185h-185z" />
    <glyph glyph-name="Z" unicode="Z" 
d="M256 0v185h185v-185h-185zM512 0v185h185v-185h-185zM256 1536v185h185v-185h-185zM0 256v185h185v-185h-185zM512 1536v185h185v-185h-185zM768 0v185h185v-185h-185zM0 1536v185h185v-185h-185zM768 1536v185h185v-185h-185zM1024 1280v185h185v-185h-185zM1024 1536
v185h185v-185h-185zM1024 0v185h185v-185h-185zM0 0v185h185v-185h-185zM256 512v185h185v-185h-185zM512 768v185h185v-185h-185zM768 1024v185h185v-185h-185z" />
    <glyph glyph-name="a" unicode="a" 
d="M768 1024v185h185v-185h-185zM1024 768v185h185v-185h-185zM1024 512v185h185v-185h-185zM0 256v185h185v-185h-185zM1024 0v185h185v-185h-185zM256 1024v185h185v-185h-185zM512 1024v185h185v-185h-185zM768 512v185h185v-185h-185zM256 512v185h185v-185h-185zM768 0
v185h185v-185h-185zM1024 256v185h185v-185h-185zM512 512v185h185v-185h-185zM512 0v185h185v-185h-185zM256 0v185h185v-185h-185z" />
    <glyph glyph-name="b" unicode="b" 
d="M768 1024v185h185v-185h-185zM512 1024v185h185v-185h-185zM0 1024v185h185v-185h-185zM1024 768v185h185v-185h-185zM1024 512v185h185v-185h-185zM0 256v185h185v-185h-185zM0 0v185h185v-185h-185zM0 1536v185h185v-185h-185zM0 1280v185h185v-185h-185zM256 768v185
h185v-185h-185zM0 512v185h185v-185h-185zM768 0v185h185v-185h-185zM1024 256v185h185v-185h-185zM0 768v185h185v-185h-185zM512 0v185h185v-185h-185zM256 0v185h185v-185h-185z" />
    <glyph glyph-name="c" unicode="c" 
d="M256 0v185h185v-185h-185zM512 0v185h185v-185h-185zM0 768v185h185v-185h-185zM1024 256v185h185v-185h-185zM768 0v185h185v-185h-185zM0 512v185h185v-185h-185zM0 256v185h185v-185h-185zM256 1024v185h185v-185h-185zM512 1024v185h185v-185h-185zM768 1024v185h185
v-185h-185z" />
    <glyph glyph-name="d" unicode="d" 
d="M256 0v185h185v-185h-185zM512 0v185h185v-185h-185zM0 768v185h185v-185h-185zM1024 256v185h185v-185h-185zM768 0v185h185v-185h-185zM0 512v185h185v-185h-185zM256 1024v185h185v-185h-185zM1024 1280v185h185v-185h-185zM1024 1536v185h185v-185h-185zM1024 0v185
h185v-185h-185zM0 256v185h185v-185h-185zM1024 512v185h185v-185h-185zM1024 768v185h185v-185h-185zM1024 1024v185h185v-185h-185zM512 1024v185h185v-185h-185zM768 768v185h185v-185h-185z" />
    <glyph glyph-name="e" unicode="e" 
d="M768 1024v185h185v-185h-185zM512 1024v185h185v-185h-185zM1024 768v185h185v-185h-185zM768 512v185h185v-185h-185zM256 512v185h185v-185h-185zM0 256v185h185v-185h-185zM1024 512v185h185v-185h-185zM256 1024v185h185v-185h-185zM0 512v185h185v-185h-185zM768 0
v185h185v-185h-185zM512 512v185h185v-185h-185zM0 768v185h185v-185h-185zM512 0v185h185v-185h-185zM256 0v185h185v-185h-185z" />
    <glyph glyph-name="f" unicode="f" 
d="M256 0v185h185v-185h-185zM512 1536v185h185v-185h-185zM0 768v185h185v-185h-185zM512 768v185h185v-185h-185zM768 1536v185h185v-185h-185zM256 768v185h185v-185h-185zM256 1024v185h185v-185h-185zM256 256v185h185v-185h-185zM256 512v185h185v-185h-185zM256 1280
v185h185v-185h-185zM1024 1280v185h185v-185h-185z" />
    <glyph glyph-name="g" unicode="g" 
d="M256 1280v185h185v-185h-185zM256 512v185h185v-185h-185zM1024 512v185h185v-185h-185zM1024 256v185h185v-185h-185zM512 512v185h185v-185h-185zM768 512v185h185v-185h-185zM0 1024v185h185v-185h-185zM768 0v185h185v-185h-185zM512 0v185h185v-185h-185zM0 768v185
h185v-185h-185zM256 0v185h185v-185h-185zM512 1280v185h185v-185h-185zM768 1280v185h185v-185h-185zM1024 1280v185h185v-185h-185zM1024 1024v185h185v-185h-185zM1024 768v185h185v-185h-185z" />
    <glyph glyph-name="h" unicode="h" 
d="M1024 768v185h185v-185h-185zM768 1024v185h185v-185h-185zM512 1024v185h185v-185h-185zM0 1536v185h185v-185h-185zM0 768v185h185v-185h-185zM0 256v185h185v-185h-185zM0 0v185h185v-185h-185zM1024 0v185h185v-185h-185zM0 1024v185h185v-185h-185zM256 768v185h185
v-185h-185zM1024 256v185h185v-185h-185zM1024 512v185h185v-185h-185zM0 512v185h185v-185h-185zM0 1280v185h185v-185h-185z" />
    <glyph glyph-name="i" unicode="i" 
d="M512 512v185h185v-185h-185zM512 256v185h185v-185h-185zM256 1024v185h185v-185h-185zM768 0v185h185v-185h-185zM256 0v185h185v-185h-185zM512 0v185h185v-185h-185zM512 1024v185h185v-185h-185zM512 1536v185h185v-185h-185zM512 768v185h185v-185h-185z" />
    <glyph glyph-name="j" unicode="j" 
d="M768 768v185h185v-185h-185zM768 1536v185h185v-185h-185zM768 1024v185h185v-185h-185zM512 0v185h185v-185h-185zM512 1024v185h185v-185h-185zM768 256v185h185v-185h-185zM768 512v185h185v-185h-185zM256 0v185h185v-185h-185zM0 256v185h185v-185h-185z" />
    <glyph glyph-name="k" unicode="k" 
d="M0 512v185h185v-185h-185zM0 0v185h185v-185h-185zM512 768v185h185v-185h-185zM256 512v185h185v-185h-185zM0 1280v185h185v-185h-185zM0 256v185h185v-185h-185zM0 1024v185h185v-185h-185zM0 1536v185h185v-185h-185zM0 768v185h185v-185h-185zM512 256v185h185v-185
h-185zM768 1024v185h185v-185h-185zM768 0v185h185v-185h-185z" />
    <glyph glyph-name="l" unicode="l" 
d="M768 0v185h185v-185h-185zM512 1536v185h185v-185h-185zM512 256v185h185v-185h-185zM512 1024v185h185v-185h-185zM256 1536v185h185v-185h-185zM512 0v185h185v-185h-185zM512 512v185h185v-185h-185zM512 1280v185h185v-185h-185zM256 0v185h185v-185h-185zM512 768
v185h185v-185h-185z" />
    <glyph glyph-name="m" unicode="m" 
d="M256 1024v185h185v-185h-185zM0 0v185h185v-185h-185zM512 768v185h185v-185h-185zM0 1024v185h185v-185h-185zM0 256v185h185v-185h-185zM1024 768v185h185v-185h-185zM768 1024v185h185v-185h-185zM0 512v185h185v-185h-185zM512 512v185h185v-185h-185zM0 768v185h185
v-185h-185zM1024 512v185h185v-185h-185zM1024 0v185h185v-185h-185zM1024 256v185h185v-185h-185z" />
    <glyph glyph-name="n" unicode="n" 
d="M1024 256v185h185v-185h-185zM1024 0v185h185v-185h-185zM1024 512v185h185v-185h-185zM0 768v185h185v-185h-185zM0 512v185h185v-185h-185zM768 1024v185h185v-185h-185zM1024 768v185h185v-185h-185zM0 256v185h185v-185h-185zM0 1024v185h185v-185h-185zM512 1024
v185h185v-185h-185zM0 0v185h185v-185h-185zM256 768v185h185v-185h-185z" />
    <glyph glyph-name="o" unicode="o" 
d="M256 0v185h185v-185h-185zM512 0v185h185v-185h-185zM512 1024v185h185v-185h-185zM256 1024v185h185v-185h-185zM0 256v185h185v-185h-185zM1024 768v185h185v-185h-185zM768 1024v185h185v-185h-185zM0 512v185h185v-185h-185zM0 768v185h185v-185h-185zM1024 512v185
h185v-185h-185zM768 0v185h185v-185h-185zM1024 256v185h185v-185h-185z" />
    <glyph glyph-name="p" unicode="p" 
d="M768 512v185h185v-185h-185zM512 512v185h185v-185h-185zM0 768v185h185v-185h-185zM0 512v185h185v-185h-185zM768 1024v185h185v-185h-185zM1024 768v185h185v-185h-185zM0 256v185h185v-185h-185zM0 1024v185h185v-185h-185zM512 1024v185h185v-185h-185zM256 512v185
h185v-185h-185zM0 0v185h185v-185h-185zM256 1024v185h185v-185h-185z" />
    <glyph glyph-name="q" unicode="q" 
d="M256 1024v185h185v-185h-185zM1024 0v185h185v-185h-185zM256 512v185h185v-185h-185zM512 1024v185h185v-185h-185zM1024 1024v185h185v-185h-185zM1024 256v185h185v-185h-185zM1024 768v185h185v-185h-185zM768 1024v185h185v-185h-185zM1024 512v185h185v-185h-185z
M0 768v185h185v-185h-185zM512 512v185h185v-185h-185zM768 512v185h185v-185h-185z" />
    <glyph glyph-name="r" unicode="r" 
d="M0 768v185h185v-185h-185zM0 256v185h185v-185h-185zM768 1024v185h185v-185h-185zM0 512v185h185v-185h-185zM0 0v185h185v-185h-185zM0 1024v185h185v-185h-185zM512 1024v185h185v-185h-185zM1024 768v185h185v-185h-185zM256 768v185h185v-185h-185z" />
    <glyph glyph-name="s" unicode="s" 
d="M512 512v185h185v-185h-185zM768 512v185h185v-185h-185zM512 1024v185h185v-185h-185zM256 1024v185h185v-185h-185zM256 0v185h185v-185h-185zM256 512v185h185v-185h-185zM768 1024v185h185v-185h-185zM1024 256v185h185v-185h-185zM0 768v185h185v-185h-185zM512 0
v185h185v-185h-185zM768 0v185h185v-185h-185zM0 0v185h185v-185h-185z" />
    <glyph glyph-name="t" unicode="t" 
d="M0 1024v185h185v-185h-185zM768 0v185h185v-185h-185zM512 0v185h185v-185h-185zM256 1280v185h185v-185h-185zM1024 256v185h185v-185h-185zM256 512v185h185v-185h-185zM256 1536v185h185v-185h-185zM512 1024v185h185v-185h-185zM256 1024v185h185v-185h-185zM256 768
v185h185v-185h-185zM256 256v185h185v-185h-185z" />
    <glyph glyph-name="u" unicode="u" 
d="M256 0v185h185v-185h-185zM0 512v185h185v-185h-185zM0 768v185h185v-185h-185zM1024 1024v185h185v-185h-185zM1024 512v185h185v-185h-185zM0 256v185h185v-185h-185zM1024 256v185h185v-185h-185zM1024 0v185h185v-185h-185zM512 0v185h185v-185h-185zM768 256v185
h185v-185h-185zM0 1024v185h185v-185h-185zM1024 768v185h185v-185h-185z" />
    <glyph glyph-name="v" unicode="v" 
d="M1024 768v185h185v-185h-185zM0 1024v185h185v-185h-185zM768 256v185h185v-185h-185zM512 0v185h185v-185h-185zM1024 512v185h185v-185h-185zM1024 1024v185h185v-185h-185zM0 768v185h185v-185h-185zM0 512v185h185v-185h-185zM256 256v185h185v-185h-185z" />
    <glyph glyph-name="w" unicode="w" 
d="M0 256v185h185v-185h-185zM0 512v185h185v-185h-185zM0 768v185h185v-185h-185zM1024 256v185h185v-185h-185zM512 512v185h185v-185h-185zM256 0v185h185v-185h-185zM512 256v185h185v-185h-185zM0 1024v185h185v-185h-185zM768 0v185h185v-185h-185zM1024 512v185h185
v-185h-185zM1024 768v185h185v-185h-185zM1024 1024v185h185v-185h-185z" />
    <glyph glyph-name="x" unicode="x" 
d="M1024 1024v185h185v-185h-185zM1024 0v185h185v-185h-185zM0 1024v185h185v-185h-185zM768 256v185h185v-185h-185zM256 256v185h185v-185h-185zM512 512v185h185v-185h-185zM768 768v185h185v-185h-185zM256 768v185h185v-185h-185zM0 0v185h185v-185h-185z" />
    <glyph glyph-name="y" unicode="y" 
d="M0 768v185h185v-185h-185zM1024 768v185h185v-185h-185zM512 0v185h185v-185h-185zM256 0v185h185v-185h-185zM768 0v185h185v-185h-185zM0 1024v185h185v-185h-185zM1024 256v185h185v-185h-185zM1024 1024v185h185v-185h-185zM1024 512v185h185v-185h-185zM256 512v185
h185v-185h-185zM512 512v185h185v-185h-185zM768 512v185h185v-185h-185z" />
    <glyph glyph-name="z" unicode="z" 
d="M768 1024v185h185v-185h-185zM256 256v185h185v-185h-185zM512 1024v185h185v-185h-185zM512 512v185h185v-185h-185zM1024 1024v185h185v-185h-185zM0 0v185h185v-185h-185zM0 1024v185h185v-185h-185zM768 0v185h185v-185h-185zM256 0v185h185v-185h-185zM512 0v185
h185v-185h-185zM1024 0v185h185v-185h-185zM256 1024v185h185v-185h-185zM768 768v185h185v-185h-185z" />
    <glyph glyph-name="one" unicode="1" 
d="M512 1280v185h185v-185h-185zM256 1280v185h185v-185h-185zM512 0v185h185v-185h-185zM256 0v185h185v-185h-185zM768 0v185h185v-185h-185zM512 256v185h185v-185h-185zM512 1536v185h185v-185h-185zM512 512v185h185v-185h-185zM512 1024v185h185v-185h-185zM512 768
v185h185v-185h-185z" />
    <glyph glyph-name="zero" unicode="0" 
d="M0 512v185h185v-185h-185zM0 768v185h185v-185h-185zM1024 256v185h185v-185h-185zM256 1536v185h185v-185h-185zM0 256v185h185v-185h-185zM768 0v185h185v-185h-185zM256 0v185h185v-185h-185zM512 0v185h185v-185h-185zM0 1024v185h185v-185h-185zM0 1280v185h185
v-185h-185zM512 1536v185h185v-185h-185zM768 1536v185h185v-185h-185zM1024 512v185h185v-185h-185zM1024 768v185h185v-185h-185zM1024 1024v185h185v-185h-185zM1024 1280v185h185v-185h-185zM256 512v185h185v-185h-185zM512 768v185h185v-185h-185zM768 1024v185h185
v-185h-185z" />
    <glyph glyph-name="two" unicode="2" 
d="M768 768v185h185v-185h-185zM512 512v185h185v-185h-185zM256 256v185h185v-185h-185zM1024 1280v185h185v-185h-185zM1024 1024v185h185v-185h-185zM768 1536v185h185v-185h-185zM512 1536v185h185v-185h-185zM0 1280v185h185v-185h-185zM256 0v185h185v-185h-185zM0 0
v185h185v-185h-185zM512 0v185h185v-185h-185zM768 0v185h185v-185h-185zM256 1536v185h185v-185h-185zM1024 0v185h185v-185h-185z" />
    <glyph glyph-name="three" unicode="3" 
d="M1024 256v185h185v-185h-185zM256 1536v185h185v-185h-185zM768 0v185h185v-185h-185zM512 0v185h185v-185h-185zM0 256v185h185v-185h-185zM256 0v185h185v-185h-185zM0 1536v185h185v-185h-185zM512 1536v185h185v-185h-185zM768 1536v185h185v-185h-185zM768 1280v185
h185v-185h-185zM1024 1536v185h185v-185h-185zM1024 512v185h185v-185h-185zM768 768v185h185v-185h-185zM512 1024v185h185v-185h-185z" />
    <glyph glyph-name="four" unicode="4" 
d="M256 512v185h185v-185h-185zM768 1024v185h185v-185h-185zM1024 512v185h185v-185h-185zM0 512v185h185v-185h-185zM768 1280v185h185v-185h-185zM768 1536v185h185v-185h-185zM512 1280v185h185v-185h-185zM0 768v185h185v-185h-185zM768 768v185h185v-185h-185z
M768 512v185h185v-185h-185zM768 256v185h185v-185h-185zM768 0v185h185v-185h-185zM256 1024v185h185v-185h-185zM512 512v185h185v-185h-185z" />
    <glyph glyph-name="five" unicode="5" 
d="M512 1024v185h185v-185h-185zM0 1024v185h185v-185h-185zM768 0v185h185v-185h-185zM1024 256v185h185v-185h-185zM1024 768v185h185v-185h-185zM768 1024v185h185v-185h-185zM256 1024v185h185v-185h-185zM0 1280v185h185v-185h-185zM0 1536v185h185v-185h-185z
M768 1536v185h185v-185h-185zM256 1536v185h185v-185h-185zM1024 512v185h185v-185h-185zM1024 1536v185h185v-185h-185zM512 1536v185h185v-185h-185zM512 0v185h185v-185h-185zM0 256v185h185v-185h-185zM256 0v185h185v-185h-185z" />
    <glyph glyph-name="six" unicode="6" 
d="M256 0v185h185v-185h-185zM0 256v185h185v-185h-185zM512 0v185h185v-185h-185zM512 1536v185h185v-185h-185zM1024 512v185h185v-185h-185zM768 1536v185h185v-185h-185zM256 1280v185h185v-185h-185zM0 1024v185h185v-185h-185zM256 768v185h185v-185h-185zM768 768
v185h185v-185h-185zM0 512v185h185v-185h-185zM1024 256v185h185v-185h-185zM768 0v185h185v-185h-185zM0 768v185h185v-185h-185zM512 768v185h185v-185h-185z" />
    <glyph glyph-name="nine" unicode="9" 
d="M953 1721v-185h-185v185h185zM1209 1465v-185h-185v185h185zM697 1721v-185h-185v185h185zM697 185v-185h-185v185h185zM185 1209v-185h-185v185h185zM441 185v-185h-185v185h185zM953 441v-185h-185v185h185zM1209 697v-185h-185v185h185zM953 953v-185h-185v185h185z
M441 953v-185h-185v185h185zM1209 1209v-185h-185v185h185zM185 1465v-185h-185v185h185zM441 1721v-185h-185v185h185zM1209 953v-185h-185v185h185zM697 953v-185h-185v185h185z" />
    <glyph glyph-name="seven" unicode="7" 
d="M697 953v-185h-185v185h185zM441 1721v-185h-185v185h185zM185 1721v-185h-185v185h185zM1209 1465v-185h-185v185h185zM441 697v-185h-185v185h185zM953 1209v-185h-185v185h185zM441 441v-185h-185v185h185zM441 185v-185h-185v185h185zM697 1721v-185h-185v185h185z
M1209 1721v-185h-185v185h185zM953 1721v-185h-185v185h185z" />
    <glyph glyph-name="eight" unicode="8" 
d="M953 1721v-185h-185v185h185zM953 953v-185h-185v185h185zM697 1721v-185h-185v185h185zM185 697v-185h-185v185h185zM185 441v-185h-185v185h185zM697 953v-185h-185v185h185zM185 1209v-185h-185v185h185zM1209 1465v-185h-185v185h185zM185 1465v-185h-185v185h185z
M441 1721v-185h-185v185h185zM441 953v-185h-185v185h185zM1209 1209v-185h-185v185h185zM1209 697v-185h-185v185h185zM1209 441v-185h-185v185h185zM441 185v-185h-185v185h185zM697 185v-185h-185v185h185zM953 185v-185h-185v185h185z" />
    <glyph glyph-name="colon" unicode=":" 
d="M697 697v-185h-185v185h185zM697 1209v-185h-185v185h185z" />
    <glyph glyph-name="semicolon" unicode=";" 
d="M697 1209v-185h-185v185h185zM697 697v-185h-185v185h185zM441 185v-185h-185v185h185zM441 1209v-185h-185v185h185zM441 1465v-185h-185v185h185zM697 1465v-185h-185v185h185zM441 697v-185h-185v185h185zM697 441v-185h-185v185h185z" />
    <glyph glyph-name="numbersign" unicode="#" 
d="M441 185v-185h-185v185h185zM441 697v-185h-185v185h185zM953 1465v-185h-185v185h185zM441 1465v-185h-185v185h185zM441 953v-185h-185v185h185zM441 441v-185h-185v185h185zM441 1209v-185h-185v185h185zM953 1209v-185h-185v185h185zM953 1721v-185h-185v185h185z
M441 1721v-185h-185v185h185zM953 953v-185h-185v185h185zM953 185v-185h-185v185h185zM953 441v-185h-185v185h185zM953 697v-185h-185v185h185zM185 1209v-185h-185v185h185zM697 1209v-185h-185v185h185zM1209 1209v-185h-185v185h185zM185 697v-185h-185v185h185z
M697 697v-185h-185v185h185zM1209 697v-185h-185v185h185z" />
    <glyph glyph-name="dollar" unicode="$" 
d="M256 256v185h185v-185h-185zM512 0v185h185v-185h-185zM256 768v185h185v-185h-185zM0 1024v185h185v-185h-185zM768 768v185h185v-185h-185zM1024 1280v185h185v-185h-185zM768 1280v185h185v-185h-185zM0 256v185h185v-185h-185zM256 1280v185h185v-185h-185zM512 768
v185h185v-185h-185zM512 1536v185h185v-185h-185zM768 256v185h185v-185h-185zM1024 512v185h185v-185h-185zM512 1280v185h185v-185h-185zM512 1024v185h185v-185h-185zM512 512v185h185v-185h-185zM512 256v185h185v-185h-185z" />
    <glyph glyph-name="percent" unicode="%" 
d="M1024 0v185h185v-185h-185zM0 1536v185h185v-185h-185zM768 1024v185h185v-185h-185zM1024 256v185h185v-185h-185zM768 256v185h185v-185h-185zM256 1280v185h185v-185h-185zM512 768v185h185v-185h-185zM0 1280v185h185v-185h-185zM0 0v185h185v-185h-185zM1024 1536
v185h185v-185h-185zM1024 1280v185h185v-185h-185zM256 1536v185h185v-185h-185zM256 512v185h185v-185h-185zM768 0v185h185v-185h-185zM0 256v185h185v-185h-185z" />
    <glyph glyph-name="ampersand" unicode="&#x26;" 
d="M256 0v185h185v-185h-185zM512 512v185h185v-185h-185zM256 1536v185h185v-185h-185zM1024 512v185h185v-185h-185zM0 256v185h185v-185h-185zM512 0v185h185v-185h-185zM0 1280v185h185v-185h-185zM256 768v185h185v-185h-185zM0 512v185h185v-185h-185zM768 256v185
h185v-185h-185zM0 1024v185h185v-185h-185zM1024 0v185h185v-185h-185zM512 1024v185h185v-185h-185zM512 1280v185h185v-185h-185z" />
    <glyph glyph-name="quotesingle" unicode="'" 
d="M512 1536v185h185v-185h-185zM512 1280v185h185v-185h-185zM256 1024v185h185v-185h-185zM256 1536v185h185v-185h-185z" />
    <glyph glyph-name="parenleft" unicode="(" 
d="M256 1024v185h185v-185h-185zM256 1280v185h185v-185h-185zM256 768v185h185v-185h-185zM256 512v185h185v-185h-185zM256 256v185h185v-185h-185zM512 0v185h185v-185h-185zM512 1536v185h185v-185h-185z" />
    <glyph glyph-name="parenright" unicode=")" 
d="M697 697v-185h-185v185h185zM697 441v-185h-185v185h185zM697 953v-185h-185v185h185zM697 1209v-185h-185v185h185zM697 1465v-185h-185v185h185zM441 1721v-185h-185v185h185zM441 185v-185h-185v185h185z" />
    <glyph glyph-name="asterisk" unicode="*" 
d="M441 953v-185h-185v185h185zM697 1721v-185h-185v185h185zM697 1465v-185h-185v185h185zM697 1209v-185h-185v185h185zM185 697v-185h-185v185h185zM441 1465v-185h-185v185h185zM185 1721v-185h-185v185h185zM697 953v-185h-185v185h185zM697 697v-185h-185v185h185z
M1209 697v-185h-185v185h185zM953 953v-185h-185v185h185zM953 1465v-185h-185v185h185zM1209 1721v-185h-185v185h185z" />
    <glyph glyph-name="plus" unicode="+" 
d="M953 953v-185h-185v185h185zM1209 953v-185h-185v185h185zM697 441v-185h-185v185h185zM697 185v-185h-185v185h185zM697 697v-185h-185v185h185zM697 953v-185h-185v185h185zM185 953v-185h-185v185h185zM697 1209v-185h-185v185h185zM697 1465v-185h-185v185h185z
M697 1721v-185h-185v185h185zM441 953v-185h-185v185h185z" />
    <glyph glyph-name="comma" unicode="," 
d="M441 697v-185h-185v185h185zM441 185v-185h-185v185h185zM697 697v-185h-185v185h185zM697 441v-185h-185v185h185z" />
    <glyph glyph-name="hyphen" unicode="-" horiz-adv-x="900" 
d="M697 953v-185h-185v185h185zM441 953v-185h-185v185h185zM185 953v-185h-185v185h185z" />
    <glyph glyph-name="slash" unicode="/" 
d="M953 1209v-185h-185v185h185zM185 185v-185h-185v185h185zM697 953v-185h-185v185h185zM185 441v-185h-185v185h185zM441 697v-185h-185v185h185zM1209 1721v-185h-185v185h185zM1209 1465v-185h-185v185h185z" />
    <glyph glyph-name="less" unicode="&#x3c;" 
d="M697 1465v-185h-185v185h185zM953 1721v-185h-185v185h185zM185 953v-185h-185v185h185zM441 697v-185h-185v185h185zM953 185v-185h-185v185h185zM697 441v-185h-185v185h185zM441 1209v-185h-185v185h185z" />
    <glyph glyph-name="greater" unicode="&#x3e;" 
d="M256 256v185h185v-185h-185zM0 0v185h185v-185h-185zM768 768v185h185v-185h-185zM512 1024v185h185v-185h-185zM0 1536v185h185v-185h-185zM256 1280v185h185v-185h-185zM512 512v185h185v-185h-185z" />
    <glyph glyph-name="equal" unicode="=" 
d="M512 512v185h185v-185h-185zM0 1024v185h185v-185h-185zM256 1024v185h185v-185h-185zM1024 512v185h185v-185h-185zM768 512v185h185v-185h-185zM256 512v185h185v-185h-185zM0 512v185h185v-185h-185zM1024 1024v185h185v-185h-185zM768 1024v185h185v-185h-185z
M512 1024v185h185v-185h-185z" />
    <glyph glyph-name="question" unicode="?" 
d="M512 1536v185h185v-185h-185zM768 1536v185h185v-185h-185zM1024 1280v185h185v-185h-185zM512 0v185h185v-185h-185zM768 768v185h185v-185h-185zM1024 1024v185h185v-185h-185zM256 1536v185h185v-185h-185zM0 1280v185h185v-185h-185zM512 512v185h185v-185h-185z" />
    <glyph glyph-name="at" unicode="@" 
d="M0 1024v185h185v-185h-185zM0 1280v185h185v-185h-185zM256 1536v185h185v-185h-185zM768 1024v185h185v-185h-185zM512 768v185h185v-185h-185zM0 768v185h185v-185h-185zM1024 1280v185h185v-185h-185zM768 1536v185h185v-185h-185zM512 1536v185h185v-185h-185zM0 512
v185h185v-185h-185zM0 256v185h185v-185h-185zM256 0v185h185v-185h-185zM512 0v185h185v-185h-185zM768 0v185h185v-185h-185zM1024 256v185h185v-185h-185zM1024 512v185h185v-185h-185zM512 512v185h185v-185h-185zM1024 1024v185h185v-185h-185z" />
    <glyph glyph-name="bracketleft" unicode="[" 
d="M256 0v185h185v-185h-185zM768 0v185h185v-185h-185zM512 0v185h185v-185h-185zM256 256v185h185v-185h-185zM256 512v185h185v-185h-185zM512 1536v185h185v-185h-185zM768 1536v185h185v-185h-185zM256 768v185h185v-185h-185zM256 1536v185h185v-185h-185zM256 1280
v185h185v-185h-185zM256 1024v185h185v-185h-185z" />
    <glyph glyph-name="bracketright" unicode="]" 
d="M953 1721v-185h-185v185h185zM441 1721v-185h-185v185h185zM697 1721v-185h-185v185h185zM953 1465v-185h-185v185h185zM953 1209v-185h-185v185h185zM697 185v-185h-185v185h185zM441 185v-185h-185v185h185zM953 953v-185h-185v185h185zM953 185v-185h-185v185h185z
M953 441v-185h-185v185h185zM953 697v-185h-185v185h185z" />
    <glyph glyph-name="backslash" unicode="\" 
d="M953 697v-185h-185v185h185zM1209 441v-185h-185v185h185zM1209 185v-185h-185v185h185zM697 953v-185h-185v185h185zM185 1465v-185h-185v185h185zM185 1721v-185h-185v185h185zM441 1209v-185h-185v185h185z" />
    <glyph glyph-name="asciicircum" unicode="^" 
d="M185 1209v-185h-185v185h185zM697 1721v-185h-185v185h185zM441 1465v-185h-185v185h185zM953 1465v-185h-185v185h185zM1209 1209v-185h-185v185h185z" />
    <glyph glyph-name="underscore" unicode="_" 
d="M953 185v-185h-185v185h185zM441 185v-185h-185v185h185zM697 185v-185h-185v185h185zM185 185v-185h-185v185h185zM1209 185v-185h-185v185h185z" />
    <glyph glyph-name="grave" unicode="`" 
d="M441 1721v-185h-185v185h185zM697 1209v-185h-185v185h185zM441 1465v-185h-185v185h185zM697 1721v-185h-185v185h185z" />
    <glyph glyph-name="braceleft" unicode="{" 
d="M953 1721v-185h-185v185h185zM697 1209v-185h-185v185h185zM441 953v-185h-185v185h185zM697 1465v-185h-185v185h185zM697 697v-185h-185v185h185zM697 441v-185h-185v185h185zM953 185v-185h-185v185h185z" />
    <glyph glyph-name="braceright" unicode="}" 
d="M256 0v185h185v-185h-185zM512 512v185h185v-185h-185zM768 768v185h185v-185h-185zM512 256v185h185v-185h-185zM512 1024v185h185v-185h-185zM512 1280v185h185v-185h-185zM256 1536v185h185v-185h-185z" />
    <glyph glyph-name="bar" unicode="|" 
d="M512 1536v185h185v-185h-185zM512 1280v185h185v-185h-185zM512 1024v185h185v-185h-185zM512 256v185h185v-185h-185zM512 512v185h185v-185h-185zM512 0v185h185v-185h-185z" />
    <glyph glyph-name="asciitilde" unicode="~" 
d="M1024 768v185h185v-185h-185zM512 768v185h185v-185h-185zM768 512v185h185v-185h-185zM0 768v185h185v-185h-185zM256 1024v185h185v-185h-185z" />
    <glyph glyph-name="exclam" unicode="!" 
d="M512 1536v185h185v-185h-185zM512 1280v185h185v-185h-185zM512 768v185h185v-185h-185zM512 1024v185h185v-185h-185zM512 512v185h185v-185h-185zM512 0v185h185v-185h-185z" />
    <glyph glyph-name="quotedbl" unicode="&#x22;" 
d="M768 1024v185h185v-185h-185zM256 1024v185h185v-185h-185zM256 1280v185h185v-185h-185zM768 1280v185h185v-185h-185zM768 1536v185h185v-185h-185zM256 1536v185h185v-185h-185z" />
    <glyph glyph-name="quotedblright" unicode="&#x201d;" 
d="M0 1536v185h185v-185h-185zM256 1536v185h185v-185h-185zM768 1536v185h185v-185h-185zM256 1280v185h185v-185h-185zM0 1024v185h185v-185h-185zM1024 1280v185h185v-185h-185zM1024 1536v185h185v-185h-185zM768 1024v185h185v-185h-185z" />
    <glyph glyph-name="quotedblleft" unicode="&#x201c;" 
d="M1209 1209v-185h-185v185h185zM953 1209v-185h-185v185h185zM441 1209v-185h-185v185h185zM953 1465v-185h-185v185h185zM1209 1721v-185h-185v185h185zM185 1465v-185h-185v185h185zM185 1209v-185h-185v185h185zM441 1721v-185h-185v185h185z" />
    <glyph glyph-name="quoteright" unicode="&#x2019;" 
d="M256 1024v185h185v-185h-185zM512 1280v185h185v-185h-185zM512 1536v185h185v-185h-185zM256 1536v185h185v-185h-185z" />
    <glyph glyph-name="quoteleft" unicode="&#x2018;" 
d="M697 1721v-185h-185v185h185zM441 1465v-185h-185v185h185zM441 1209v-185h-185v185h185zM697 1209v-185h-185v185h185z" />
  </font>
</defs>
</svg>
